<?xml version="1.0" encoding="UTF-8" standalone="no"?>
<svg
   xmlns:dc="http://purl.org/dc/elements/1.1/"
   xmlns:cc="http://creativecommons.org/ns#"
   xmlns:rdf="http://www.w3.org/1999/02/22-rdf-syntax-ns#"
   xmlns:svg="http://www.w3.org/2000/svg"
   xmlns="http://www.w3.org/2000/svg"
   xmlns:sodipodi="http://sodipodi.sourceforge.net/DTD/sodipodi-0.dtd"
   xmlns:inkscape="http://www.inkscape.org/namespaces/inkscape"
   viewBox="509.30737 302.13782 203.99992 274.27515"
   y="0px"
   x="0px"
   id="final_svg"
   version="1.1"
   width="203.99992"
   height="274.27515"
   sodipodi:docname="axt-text-vert-logo.svg"
   inkscape:version="0.92.5 (2060ec1f9f, 2020-04-08)">
  <metadata
     id="metadata18">
    <rdf:RDF>
      <cc:Work
         rdf:about="">
        <dc:format>image/svg+xml</dc:format>
        <dc:type
           rdf:resource="http://purl.org/dc/dcmitype/StillImage" />
        <dc:title></dc:title>
      </cc:Work>
    </rdf:RDF>
  </metadata>
  <sodipodi:namedview
     pagecolor="#ffffff"
     bordercolor="#666666"
     borderopacity="1"
     objecttolerance="10"
     gridtolerance="10"
     guidetolerance="10"
     inkscape:pageopacity="0"
     inkscape:pageshadow="2"
     inkscape:window-width="2560"
     inkscape:window-height="1403"
     id="namedview16"
     showgrid="false"
     fit-margin-top="0"
     fit-margin-left="0"
     fit-margin-right="0"
     fit-margin-bottom="0"
     inkscape:zoom="0.79842739"
     inkscape:cx="260.39126"
     inkscape:cy="181.1559"
     inkscape:window-x="0"
     inkscape:window-y="0"
     inkscape:window-maximized="1"
     inkscape:current-layer="final_svg" />
  <defs
     id="defs28" />
  <g
     transform="matrix(0.611,0,0,0.611,520.8423,302.13782)"
     id="color_index_2"
     style="opacity:1;fill:#ffc81d">
    <path
       id="path6"
       d="M 157.504,293.841 87.213,253.259 V 90.93 c 11.444,2.688 27.841,8.022 44.97,19.262 10.847,7.117 19.177,14.758 25.321,21.321 3.078,22.193 5.287,47.392 5.571,75.104 0.336,32.637 -2.071,61.974 -5.571,87.224 z M 244.709,243.492 315,202.91 V 40.582 c -10.211,1.836 -26.276,6.071 -43.143,16.811 -12.508,7.964 -21.346,16.887 -27.148,23.771 0,54.109 0,108.219 0,162.328 z"
       inkscape:connector-curvature="0" />
  </g>
  <g
     transform="matrix(0.611,0,0,0.611,520.8423,302.13782)"
     id="color_index_1"
     style="opacity:1;fill:#ffb343">
    <path
       id="path9"
       d="m 157.504,131.513 c 4.862,-6.858 14.109,-18.027 29.211,-27.108 16.704,-10.045 32.48,-12.669 41.08,-13.474 0,54.109 0,108.219 0,162.328 l -70.291,40.582 z M 70.29,81.164 C 65.585,74.356 56.49,63.087 41.429,53.965 24.519,43.724 8.485,41.274 0.001,40.582 c 0,54.109 0,108.219 0,162.328 l 70.289,40.582 z"
       inkscape:connector-curvature="0" />
  </g>
  <g
     transform="matrix(0.611,0,0,0.611,520.8423,302.13782)"
     id="color_index_0"
     style="opacity:1;fill:#683210">
    <path
       id="path12"
       d="m 157.504,50.348 70.291,40.582 -70.291,40.582 c -2.994,-9.216 -6.248,-22.688 -6.425,-39.169 -0.191,-17.873 3.306,-32.396 6.425,-41.995 z M 70.29,81.164 140.581,40.582 70.29,0 c -3.347,9.485 -7.391,24.657 -6.931,43.549 0.388,15.924 3.839,28.86 6.931,37.615 z m 174.419,0 L 315,40.582 244.709,0 c -3.644,8.718 -8.883,24.501 -8.104,44.645 0.616,15.913 4.755,28.527 8.104,36.519 z"
       inkscape:connector-curvature="0" />
  </g>
  <g
     id="g17"
     transform="matrix(0.611,0,0,0.611,520.8423,302.13782)"
     style="opacity:1">
    <path
       id="path15"
       d="M 157.504,131.512 87.213,90.93 157.504,50.348 Z M 70.291,0 0,40.582 70.291,81.164 Z m 174.418,0 -70.291,40.582 70.291,40.582 z"
       inkscape:connector-curvature="0" />
  </g>
  <g
     transform="matrix(0.76950786,0,0,0.79182418,509.40741,449.85504)"
     id="text_group"
     style="opacity:1;fill:#7b5648">
    <path
       id="path19"
       d="M -0.13,128 41.79,35.44 H 54.88 L 96.93,128 H 83.04 L 72.86,104.86 H 23.67 L 13.49,128 Z M 48.26,48.93 28.3,94.28 H 68.23 Z M 113.72,128 H 98.51 L 133.29,80.53 100.63,35.44 h 15.07 l 25.92,35.57 25.65,-35.57 h 14.42 L 149.03,80.13 184.07,128 H 168.86 L 141.09,89.79 Z m 72.6,-81.06 v -11.5 h 76.56 v 11.5 H 231.14 V 128 H 218.05 V 46.94 Z"
       inkscape:connector-curvature="0" />
  </g>
  <g
     transform="matrix(0.7314116,0,0,0.7314116,516.72774,549.57224)"
     id="tagline_group"
     style="opacity:1;fill:#bea1a2">
    <path
       id="path22"
       d="M -6.034947,30.991883 V 25.05925 h 4.5239695 c 5.2499088,0 8.5113757,-2.793101 8.5113757,-7.329183 0,-4.557734 -3.2614669,-7.318357 -8.5113757,-7.318357 h -8.2378331 v 20.580173 z m 0,-17.343208 h 4.3451149 c 3.2614664,0 4.9448039,1.493985 4.9448039,4.081392 0,2.587407 -1.6833375,4.092217 -4.9448039,4.092217 H -6.034947 Z m 35.528943,3.940654 v -2.295106 h -3.398238 v 15.69766 h 3.566572 v -7.610658 c 0,-3.204488 1.7149,-4.850036 4.429281,-4.850036 0.263022,0 0.515522,0.02165 0.831148,0.08661 V 15.12101 c -2.546048,0 -4.397719,0.822773 -5.428763,2.468321 z m 30.889243,13.608248 c 4.744907,0 8.143145,-3.345226 8.143145,-8.054524 0,-4.698472 -3.398238,-8.022045 -8.143145,-8.022045 -4.681783,0 -8.111583,3.323573 -8.111583,8.022045 0,4.709298 3.4298,8.054524 8.111583,8.054524 z m 0,-3.139532 c -2.56709,0 -4.513449,-1.916198 -4.513449,-4.914992 0,-2.998794 1.946359,-4.914991 4.513449,-4.914991 2.598652,0 4.545011,1.916197 4.545011,4.914991 0,2.998794 -1.946359,4.914992 -4.545011,4.914992 z M 95.849054,15.121008 c -2.083128,0 -3.861154,0.72534 -5.060532,2.23015 v -2.056935 h -3.398237 v 21.402948 h 3.566571 v -7.610659 c 1.230941,1.439854 2.945841,2.111065 4.892198,2.111065 4.460846,0 7.743346,-3.17201 7.743346,-8.054524 0,-4.850036 -3.2825,-8.022045 -7.743346,-8.022045 z m -0.39979,12.937037 c -2.577612,0 -4.545012,-1.916198 -4.545012,-4.914992 0,-2.998794 1.9674,-4.914991 4.545012,-4.914991 2.567088,0 4.513448,1.916197 4.513448,4.914991 0,2.998794 -1.94636,4.914992 -4.513448,4.914992 z m 48.069806,-14.40937 h 6.62814 v 17.343208 h 3.71386 V 13.648675 h 6.62814 V 10.41171 h -16.97014 z m 49.20605,9.580986 c 0,-4.904166 -3.26146,-8.108653 -7.71179,-8.108653 -4.54501,0 -7.89064,3.345225 -7.89064,8.022045 0,4.67682 3.31407,8.054524 8.42721,8.054524 2.63021,0 4.77647,-0.876904 6.14418,-2.55493 l -1.9148,-2.262628 c -1.08364,1.147553 -2.43031,1.699678 -4.14521,1.699678 -2.65126,0 -4.51345,-1.461507 -4.93429,-3.756613 h 11.97274 c 0.021,-0.357257 0.0526,-0.801122 0.0526,-1.093423 z m -7.71179,-5.174815 c 2.33564,0 4.02949,1.55894 4.31356,3.821568 h -8.65867 c 0.33667,-2.295106 2.03053,-3.821568 4.34511,-3.821568 z m 33.57207,13.142731 c 2.9774,0 5.34459,-1.320769 6.52293,-3.670005 l -2.74594,-1.645548 c -0.91532,1.493984 -2.28303,2.176021 -3.79804,2.176021 -2.63021,0 -4.62917,-1.851242 -4.62917,-4.914992 0,-3.031272 1.99896,-4.914991 4.62917,-4.914991 1.51501,0 2.88272,0.682036 3.79804,2.17602 l 2.74594,-1.645548 c -1.17834,-2.381714 -3.54553,-3.637526 -6.52293,-3.637526 -4.82908,0 -8.25888,3.323573 -8.25888,8.022045 0,4.709298 3.4298,8.054524 8.25888,8.054524 z m 25.03964,-0.205694 h 3.56657 v -7.935438 c 0,-3.150358 1.7149,-4.73095 4.26095,-4.73095 2.28303,0 3.6297,1.353247 3.6297,4.146348 v 8.52004 h 3.57709 V 21.9955 c 0,-4.73095 -2.71438,-6.874492 -6.37564,-6.874492 -2.11469,0 -3.91376,0.703688 -5.0921,1.991978 V 9.1775487 h -3.56657 z"
       inkscape:connector-curvature="0"
       style="stroke-width:1.06723261" />
  </g>
</svg>
