<?xml version="1.0" encoding="UTF-8" standalone="no"?>
<svg
   xmlns:dc="http://purl.org/dc/elements/1.1/"
   xmlns:cc="http://creativecommons.org/ns#"
   xmlns:rdf="http://www.w3.org/1999/02/22-rdf-syntax-ns#"
   xmlns:svg="http://www.w3.org/2000/svg"
   xmlns="http://www.w3.org/2000/svg"
   xmlns:sodipodi="http://sodipodi.sourceforge.net/DTD/sodipodi-0.dtd"
   xmlns:inkscape="http://www.inkscape.org/namespaces/inkscape"
   viewBox="509.30737 302.13782 192.46499 179.53685"
   y="0px"
   x="0px"
   id="final_svg"
   version="1.1"
   width="192.465"
   height="179.53685"
   sodipodi:docname="axt-logo-only.svg"
   inkscape:version="0.92.5 (2060ec1f9f, 2020-04-08)">
  <metadata
     id="metadata18">
    <rdf:RDF>
      <cc:Work
         rdf:about="">
        <dc:format>image/svg+xml</dc:format>
        <dc:type
           rdf:resource="http://purl.org/dc/dcmitype/StillImage" />
        <dc:title></dc:title>
      </cc:Work>
    </rdf:RDF>
  </metadata>
  <sodipodi:namedview
     pagecolor="#ffffff"
     bordercolor="#666666"
     borderopacity="1"
     objecttolerance="10"
     gridtolerance="10"
     guidetolerance="10"
     inkscape:pageopacity="0"
     inkscape:pageshadow="2"
     inkscape:window-width="1860"
     inkscape:window-height="1016"
     id="namedview16"
     showgrid="false"
     fit-margin-top="0"
     fit-margin-left="0"
     fit-margin-right="0"
     fit-margin-bottom="0"
     inkscape:zoom="0.79842739"
     inkscape:cx="16.524621"
     inkscape:cy="81.407756"
     inkscape:window-x="343"
     inkscape:window-y="1107"
     inkscape:window-maximized="1"
     inkscape:current-layer="final_svg" />
  <defs
     id="defs28" />
  <g
     transform="matrix(0.611,0,0,0.611,509.30737,302.13782)"
     id="color_index_2"
     style="opacity:1;fill:#ffc81d">
    <path
       id="path6"
       d="M 157.504,293.841 87.213,253.259 V 90.93 c 11.444,2.688 27.841,8.022 44.97,19.262 10.847,7.117 19.177,14.758 25.321,21.321 3.078,22.193 5.287,47.392 5.571,75.104 0.336,32.637 -2.071,61.974 -5.571,87.224 z M 244.709,243.492 315,202.91 V 40.582 c -10.211,1.836 -26.276,6.071 -43.143,16.811 -12.508,7.964 -21.346,16.887 -27.148,23.771 0,54.109 0,108.219 0,162.328 z"
       inkscape:connector-curvature="0" />
  </g>
  <g
     transform="matrix(0.611,0,0,0.611,509.30737,302.13782)"
     id="color_index_1"
     style="opacity:1;fill:#ffb343">
    <path
       id="path9"
       d="m 157.504,131.513 c 4.862,-6.858 14.109,-18.027 29.211,-27.108 16.704,-10.045 32.48,-12.669 41.08,-13.474 0,54.109 0,108.219 0,162.328 l -70.291,40.582 z M 70.29,81.164 C 65.585,74.356 56.49,63.087 41.429,53.965 24.519,43.724 8.485,41.274 0.001,40.582 c 0,54.109 0,108.219 0,162.328 l 70.289,40.582 z"
       inkscape:connector-curvature="0" />
  </g>
  <g
     transform="matrix(0.611,0,0,0.611,509.30737,302.13782)"
     id="color_index_0"
     style="opacity:1;fill:#683210">
    <path
       id="path12"
       d="m 157.504,50.348 70.291,40.582 -70.291,40.582 c -2.994,-9.216 -6.248,-22.688 -6.425,-39.169 -0.191,-17.873 3.306,-32.396 6.425,-41.995 z M 70.29,81.164 140.581,40.582 70.29,0 c -3.347,9.485 -7.391,24.657 -6.931,43.549 0.388,15.924 3.839,28.86 6.931,37.615 z m 174.419,0 L 315,40.582 244.709,0 c -3.644,8.718 -8.883,24.501 -8.104,44.645 0.616,15.913 4.755,28.527 8.104,36.519 z"
       inkscape:connector-curvature="0" />
  </g>
  <g
     id="g17"
     transform="matrix(0.611,0,0,0.611,509.30737,302.13782)"
     style="opacity:1">
    <path
       id="path15"
       d="M 157.504,131.512 87.213,90.93 157.504,50.348 Z M 70.291,0 0,40.582 70.291,81.164 Z m 174.418,0 -70.291,40.582 70.291,40.582 z"
       inkscape:connector-curvature="0" />
  </g>
</svg>
