<svg width="480" height="180" viewBox="0 0 480 180" fill="none" xmlns="http://www.w3.org/2000/svg">
<g clip-path="url(#clip0_67_69)">
<path d="M96.235 179.537L53.2872 154.741V55.5582C60.2795 57.2006 70.298 60.4597 80.7638 67.3273C87.3914 71.6758 92.481 76.3444 96.235 80.3544C98.1156 93.9144 99.4653 109.311 99.6389 126.243C99.8441 146.184 98.3735 164.109 96.235 179.537ZM149.517 148.774L192.465 123.978V24.7956C186.226 25.9174 176.41 28.505 166.105 35.0671C158.462 39.9331 153.062 45.3851 149.517 49.5912C149.517 82.6518 149.517 115.713 149.517 148.774Z" fill="#FFC81D"/>
<path d="M96.2349 80.3544C99.2056 76.1642 104.856 69.3399 114.083 63.7914C124.289 57.654 133.928 56.0507 139.183 55.5588C139.183 88.6194 139.183 121.681 139.183 154.741L96.2349 179.537V80.3544ZM42.9472 49.5912C40.0724 45.4315 34.5154 38.5461 25.3131 32.9726C14.9811 26.7154 5.18433 25.2184 0.000610352 24.7956C0.000610352 57.8562 0.000610352 90.9174 0.000610352 123.978L42.9472 148.774V49.5912Z" fill="#FFB343"/>
<path d="M96.2349 30.7626L139.183 55.5582L96.2349 80.3538C94.4056 74.7229 92.4174 66.4915 92.3093 56.4216C92.1926 45.5012 94.3292 36.6276 96.2349 30.7626ZM42.9472 49.5912L85.895 24.7956L42.9472 0C40.9022 5.79533 38.4313 15.0654 38.7123 26.6084C38.9494 36.338 41.058 44.2419 42.9472 49.5912ZM149.517 49.5912L192.465 24.7956L149.517 0C147.291 5.3267 144.09 14.9701 144.566 27.2781C144.942 37.0009 147.471 44.7081 149.517 49.5912Z" fill="#683210"/>
<path d="M96.2349 80.3538L53.2871 55.5582L96.2349 30.7626V80.3538ZM42.9478 0L0 24.7956L42.9478 49.5912V0ZM149.517 0L106.569 24.7956L149.517 49.5912V0Z" fill="black"/>
<path d="M216 136.8L258.029 44H271.153L313.312 136.8H299.386L289.18 113.6H239.862L229.655 136.8H216ZM264.516 57.525L244.504 102.993H284.538L264.516 57.525ZM330.146 136.8H314.896L349.766 89.2071L317.022 44H332.131L358.118 79.6624L383.835 44H398.292L365.547 88.8061L400.678 136.8H385.429L357.587 98.4911L330.146 136.8ZM402.934 55.5299V44H479.693V55.5299H447.871V136.8H434.747V55.5299H402.934Z" fill="white"/>
</g>
<defs>
<clipPath id="clip0_67_69">
<rect width="479.693" height="179.537" fill="white"/>
</clipPath>
</defs>
</svg>
