<svg xmlns="http://www.w3.org/2000/svg" version="1.1" xmlns:xlink="http://www.w3.org/1999/xlink" xmlns:svgjs="http://svgjs.com/svgjs" width="1440" height="560" preserveAspectRatio="none" viewBox="0 0 1440 560">
    <g mask="url(&quot;#SvgjsMask1016&quot;)" fill="none">
        <path d="M0 429.32L10 407.05L20 375.02L30 404.59L40 380.65L50 331.17L60 314.69L70 369.25L80 398.46L90 365.7L100 320.72L110 341.99L120 404.75L130 472.79L140 483.2L150 456.45L160 456.99L170 512.56L180 507.58L190 492.71L200 533.19L210 492.33L220 461.26L230 477.9L240 458.5L250 491.27L260 437.64L270 434.33L280 416.95L290 390.97L300 400.43L310 465.72L320 421.11L330 365.28L340 416L350 436.52L360 441.12L370 511.1L380 496.47L390 473.47L400 530.23L410 535.8L420 540.7L430 558.95L440 495.89L450 461.84L460 470.42L470 534.52L480 555.5L490 497.15L500 549.53L510 514.94L520 546.8L530 512.58L540 467.1L550 398.8L560 391.46L570 385.58L580 356.77L590 400.06L600 376.92L610 400.88L620 452.72L630 476.08L640 487.1L650 522.92L660 524.49L670 528.25L680 466.86L690 438.43L700 378.04L710 383.03L720 405.15L730 387.81L740 348.54L750 351.26L760 298.72L770 359.39L780 404.64L790 334.8L800 276.58L810 300.41L820 298.95L830 239.76L840 194.37L850 155.61L860 107.01L870 96.68L880 41.03L890 74.05L900 67.92L910 129.2L920 170.25L930 158L940 137.97L950 117.97L960 147.42L970 205.17L980 177.67L990 177.69L1000 227.56L1010 158.73L1020 176.02L1030 200.91L1040 162.88L1050 110.57L1060 105.8L1070 122.97L1080 163.43L1090 178.21L1100 127.58L1110 116.32L1120 108.95L1130 166.95L1140 164.72L1150 137.87L1160 190.18L1170 140.37L1180 126.71L1190 68.73L1200 85.24L1210 152.79L1220 162.63L1230 118.94L1240 130.47L1250 173.14L1260 114.51L1270 156.48L1280 115.31L1290 100.22L1300 122.24L1310 115.72L1320 174.28L1330 212.9L1340 166.36L1350 182.21L1360 183.95L1370 115.61L1380 178.16L1390 169.64L1400 161.09L1410 134.06L1420 133.94L1430 65.21L1440 92.34" stroke="rgba(255, 179, 67, 1)" stroke-width="2"></path>
        <path d="M0 429.32L10 407.05L20 375.02L30 404.59L40 380.65L50 331.17L60 314.69L70 369.25L80 398.46L90 365.7L100 320.72L110 341.99L120 404.75L130 472.79L140 483.2L150 456.45L160 456.99L170 512.56L180 507.58L190 492.71L200 533.19L210 492.33L220 461.26L230 477.9L240 458.5L250 491.27L260 437.64L270 434.33L280 416.95L290 390.97L300 400.43L310 465.72L320 421.11L330 365.28L340 416L350 436.52L360 441.12L370 511.1L380 496.47L390 473.47L400 530.23L410 535.8L420 540.7L430 558.95L440 495.89L450 461.84L460 470.42L470 534.52L480 555.5L490 497.15L500 549.53L510 514.94L520 546.8L530 512.58L540 467.1L550 398.8L560 391.46L570 385.58L580 356.77L590 400.06L600 376.92L610 400.88L620 452.72L630 476.08L640 487.1L650 522.92L660 524.49L670 528.25L680 466.86L690 438.43L700 378.04L710 383.03L720 405.15L730 387.81L740 348.54L750 351.26L760 298.72L770 359.39L780 404.64L790 334.8L800 276.58L810 300.41L820 298.95L830 239.76L840 194.37L850 155.61L860 107.01L870 96.68L880 41.03L890 74.05L900 67.92L910 129.2L920 170.25L930 158L940 137.97L950 117.97L960 147.42L970 205.17L980 177.67L990 177.69L1000 227.56L1010 158.73L1020 176.02L1030 200.91L1040 162.88L1050 110.57L1060 105.8L1070 122.97L1080 163.43L1090 178.21L1100 127.58L1110 116.32L1120 108.95L1130 166.95L1140 164.72L1150 137.87L1160 190.18L1170 140.37L1180 126.71L1190 68.73L1200 85.24L1210 152.79L1220 162.63L1230 118.94L1240 130.47L1250 173.14L1260 114.51L1270 156.48L1280 115.31L1290 100.22L1300 122.24L1310 115.72L1320 174.28L1330 212.9L1340 166.36L1350 182.21L1360 183.95L1370 115.61L1380 178.16L1390 169.64L1400 161.09L1410 134.06L1420 133.94L1430 65.21L1440 92.34L1440 560L0 560z" fill="url(#SvgjsLinearGradient1017)"></path>
    </g>
    <defs>
        <mask id="SvgjsMask1016">
            <rect width="1440" height="560" fill="#ffffff"></rect>
        </mask>
        <linearGradient x1="50%" y1="0%" x2="50%" y2="100%" id="SvgjsLinearGradient1017">
            <stop stop-opacity="0.65" stop-color="rgba(255, 179, 67, 1)" offset="0"></stop>
            <stop stop-opacity="0" stop-color="#ffffff" offset="0.8"></stop>
        </linearGradient>
    </defs>
</svg>
