<?xml version="1.0" encoding="UTF-8" standalone="no"?>
<svg
   xmlns:dc="http://purl.org/dc/elements/1.1/"
   xmlns:cc="http://creativecommons.org/ns#"
   xmlns:rdf="http://www.w3.org/1999/02/22-rdf-syntax-ns#"
   xmlns:svg="http://www.w3.org/2000/svg"
   xmlns="http://www.w3.org/2000/svg"
   xmlns:sodipodi="http://sodipodi.sourceforge.net/DTD/sodipodi-0.dtd"
   xmlns:inkscape="http://www.inkscape.org/namespaces/inkscape"
   viewBox="509.30737 302.13782 203.50531 274.0094"
   y="0px"
   x="0px"
   id="final_svg"
   version="1.1"
   width="203.50531"
   height="274.0094"
   sodipodi:docname="axt-text-vert-logo.svg"
   inkscape:version="0.92.5 (2060ec1f9f, 2020-04-08)"
   inkscape:export-filename="/home/ohager/Pictures/axtp/axt-text-vert-logo-2048px.png"
   inkscape:export-xdpi="717.52283"
   inkscape:export-ydpi="717.52283">
  <metadata
     id="metadata18">
    <rdf:RDF>
      <cc:Work
         rdf:about="">
        <dc:format>image/svg+xml</dc:format>
        <dc:type
           rdf:resource="http://purl.org/dc/dcmitype/StillImage" />
        <dc:title></dc:title>
      </cc:Work>
    </rdf:RDF>
  </metadata>
  <sodipodi:namedview
     pagecolor="#ffffff"
     bordercolor="#666666"
     borderopacity="1"
     objecttolerance="10"
     gridtolerance="10"
     guidetolerance="10"
     inkscape:pageopacity="0"
     inkscape:pageshadow="2"
     inkscape:window-width="1860"
     inkscape:window-height="1016"
     id="namedview16"
     showgrid="false"
     fit-margin-top="0"
     fit-margin-left="0"
     fit-margin-right="0"
     fit-margin-bottom="0"
     inkscape:zoom="0.79842739"
     inkscape:cx="-410.87716"
     inkscape:cy="201.753"
     inkscape:window-x="1513"
     inkscape:window-y="1107"
     inkscape:window-maximized="1"
     inkscape:current-layer="final_svg" />
  <defs
     id="defs28" />
  <g
     transform="matrix(0.611,0,0,0.611,520.34768,302.13782)"
     id="color_index_2"
     style="opacity:1;fill:#ffc81d">
    <path
       id="path6"
       d="M 157.504,293.841 87.213,253.259 V 90.93 c 11.444,2.688 27.841,8.022 44.97,19.262 10.847,7.117 19.177,14.758 25.321,21.321 3.078,22.193 5.287,47.392 5.571,75.104 0.336,32.637 -2.071,61.974 -5.571,87.224 z M 244.709,243.492 315,202.91 V 40.582 c -10.211,1.836 -26.276,6.071 -43.143,16.811 -12.508,7.964 -21.346,16.887 -27.148,23.771 0,54.109 0,108.219 0,162.328 z"
       inkscape:connector-curvature="0" />
  </g>
  <g
     transform="matrix(0.611,0,0,0.611,520.34768,302.13782)"
     id="color_index_1"
     style="opacity:1;fill:#ffb343">
    <path
       id="path9"
       d="m 157.504,131.513 c 4.862,-6.858 14.109,-18.027 29.211,-27.108 16.704,-10.045 32.48,-12.669 41.08,-13.474 0,54.109 0,108.219 0,162.328 l -70.291,40.582 z M 70.29,81.164 C 65.585,74.356 56.49,63.087 41.429,53.965 24.519,43.724 8.485,41.274 0.001,40.582 c 0,54.109 0,108.219 0,162.328 l 70.289,40.582 z"
       inkscape:connector-curvature="0" />
  </g>
  <g
     transform="matrix(0.611,0,0,0.611,520.34768,302.13782)"
     id="color_index_0"
     style="opacity:1;fill:#683210">
    <path
       id="path12"
       d="m 157.504,50.348 70.291,40.582 -70.291,40.582 c -2.994,-9.216 -6.248,-22.688 -6.425,-39.169 -0.191,-17.873 3.306,-32.396 6.425,-41.995 z M 70.29,81.164 140.581,40.582 70.29,0 c -3.347,9.485 -7.391,24.657 -6.931,43.549 0.388,15.924 3.839,28.86 6.931,37.615 z m 174.419,0 L 315,40.582 244.709,0 c -3.644,8.718 -8.883,24.501 -8.104,44.645 0.616,15.913 4.755,28.527 8.104,36.519 z"
       inkscape:connector-curvature="0" />
  </g>
  <g
     id="g17"
     transform="matrix(0.611,0,0,0.611,520.34768,302.13782)"
     style="opacity:1">
    <path
       id="path15"
       d="M 157.504,131.512 87.213,90.93 157.504,50.348 Z M 70.291,0 0,40.582 70.291,81.164 Z m 174.418,0 -70.291,40.582 70.291,40.582 z"
       inkscape:connector-curvature="0" />
  </g>
  <g
     transform="matrix(0.76439661,0,0,0.7710305,509.40674,449.8209)"
     id="text_group-6"
     style="opacity:1;fill:#7b5648">
              <path
   id="path840"
   d="M -0.13,128 41.79,35.44 H 54.88 L 96.93,128 H 83.04 L 72.86,104.86 H 23.67 L 13.49,128 Z M 48.26,48.93 28.3,94.28 H 68.23 Z M 113.72,128 H 98.51 L 133.29,80.53 100.63,35.44 h 15.07 l 25.92,35.57 25.65,-35.57 h 14.42 L 149.03,80.13 184.07,128 H 168.86 L 141.09,89.79 Z m 72.6,-81.06 v -11.5 h 76.56 v 11.5 H 231.14 V 128 H 218.05 V 46.94 Z"
   inkscape:connector-curvature="0" />

          </g>
  <g
     transform="matrix(0.94982819,0,0,0.9929251,429.82572,144.19238)"
     id="tagline_group-7"
     style="opacity:1;fill:#bea1a2">
              <path
   style="stroke-width:0.79052281"
   id="path843"
   d="m 87.45197,430.42009 v -4.79892 h 3.88706 c 4.53087,0 7.33953,-2.25969 7.33953,-5.92488 0,-3.68073 -2.80866,-5.91712 -7.33953,-5.91712 h -7.09006 v 16.64092 z m 0,-14.02403 h 3.7422 c 2.80866,0 4.25725,1.21138 4.25725,3.30023 0,2.09662 -1.44859,3.30799 -4.25725,3.30799 h -3.7422 z m 30.61359,3.18375 v -1.85589 h -2.92938 v 12.69617 h 3.08228 v -6.15784 c 0,-2.58582 1.47274,-3.92144 3.81463,-3.92144 0.22534,0 0.44262,0.0233 0.71625,0.0699 v -2.82655 c -2.19703,0 -3.79049,0.66781 -4.68378,1.99567 z m 26.62995,11.00335 c 4.08825,0 7.02568,-2.71007 7.02568,-6.50727 0,-3.80497 -2.93743,-6.49175 -7.02568,-6.49175 -4.03996,0 -6.99348,2.68678 -6.99348,6.49175 0,3.7972 2.95352,6.50727 6.99348,6.50727 z m 0,-2.53923 c -2.21312,0 -3.88705,-1.54529 -3.88705,-3.96804 0,-2.43052 1.67393,-3.96804 3.88705,-3.96804 2.24532,0 3.91925,1.53752 3.91925,3.96804 0,2.42275 -1.67393,3.96804 -3.91925,3.96804 z m 30.57335,-10.45979 c -1.80269,0 -3.32371,0.59793 -4.36187,1.80931 v -1.66953 h -2.92938 v 17.30873 h 3.07424 v -6.15784 c 1.0623,1.16478 2.54308,1.70835 4.21701,1.70835 3.83877,0 6.67157,-2.56253 6.67157,-6.50727 0,-3.92145 -2.8328,-6.49175 -6.67157,-6.49175 z m -0.34605,10.45979 c -2.22118,0 -3.91925,-1.54529 -3.91925,-3.96804 0,-2.43052 1.69807,-3.96804 3.91925,-3.96804 2.21313,0 3.88705,1.53752 3.88705,3.96804 0,2.42275 -1.67392,3.96804 -3.88705,3.96804 z m 21.33455,-11.64787 h 5.71389 v 14.02403 h 3.203 v -14.02403 h 5.71389 v -2.61689 h -14.63078 z m 42.41156,7.74971 c 0,-3.96803 -2.80061,-6.56163 -6.64743,-6.56163 -3.91924,0 -6.80033,2.71007 -6.80033,6.49175 0,3.77391 2.85694,6.50727 7.2671,6.50727 2.26946,0 4.11239,-0.70664 5.29541,-2.06555 l -1.64978,-1.8326 c -0.93354,0.93183 -2.09242,1.38221 -3.5732,1.38221 -2.28556,0 -3.88706,-1.18808 -4.25725,-3.04397 h 10.3172 c 0.0241,-0.28732 0.0483,-0.64452 0.0483,-0.87748 z m -6.64743,-4.18546 c 2.01998,0 3.47662,1.25797 3.71806,3.09057 h -7.46025 c 0.29776,-1.8559 1.74635,-3.09057 3.74219,-3.09057 z m 28.94771,10.62285 c 2.55918,0 4.6033,-1.06384 5.60927,-2.96632 l -2.35799,-1.33562 c -0.78868,1.21137 -1.97169,1.76271 -3.27543,1.76271 -2.26946,0 -3.99167,-1.4987 -3.99167,-3.96804 0,-2.45382 1.72221,-3.96804 3.99167,-3.96804 1.30374,0 2.48675,0.54356 3.27543,1.75494 l 2.35799,-1.32785 c -1.00597,-1.92578 -3.05009,-2.9508 -5.60927,-2.9508 -4.16873,0 -7.12225,2.68678 -7.12225,6.49175 0,3.7972 2.95352,6.50727 7.12225,6.50727 z m 21.57598,-0.16307 h 3.08228 V 424.006 c 0,-2.547 1.47274,-3.82826 3.66977,-3.82826 1.96364,0 3.12252,1.09489 3.12252,3.34682 v 6.89553 h 3.08228 v -7.27603 c 0,-3.8205 -2.34189,-5.55992 -5.4966,-5.55992 -1.81879,0 -3.372,0.57463 -4.37797,1.61517 v -6.41409 h -3.08228 z"
   inkscape:connector-curvature="0" />

          </g>
  <style
     id="style823"
     type="text/css">.st0{fill:#D70CF2;}	.st1{fill:#56048C;}	.st2{fill:#0597F2;}</style>
</svg>
