<svg version="1.1" id="final_svg" xmlns:x="&amp;ns_extend;" xmlns:i="&amp;ns_ai;" xmlns:graph="&amp;ns_graphs;" xmlns="http://www.w3.org/2000/svg" xmlns:xlink="http://www.w3.org/1999/xlink" x="0px" y="0px" viewBox="487.8736267089844 302.1378173828125 465.8898010253906 179.536865234375" style="enable-background:new 0 0 315 293.841;" xml:space="preserve">
      <style type="text/css">.st0{fill:#D70CF2;}	.st1{fill:#56048C;}	.st2{fill:#0597F2;}</style>
    <metadata>
              <sfw>
                      <slices></slices>
            <slicesourcebounds bottomleftorigin="true" height="293.841" width="315" x="0" y="0"></slicesourcebounds>
                  </sfw>
          </metadata>
    <g id="color_index_2" fill="#ffc81d" transform="translate(487.87363877073795, 302.13782449999997) scale(0.611)" opacity="1">
              <path d="M157.504,293.841l-70.291-40.582V90.93c11.444,2.688,27.841,8.022,44.97,19.262		c10.847,7.117,19.177,14.758,25.321,21.321c3.078,22.193,5.287,47.392,5.571,75.104		C163.411,239.254,161.004,268.591,157.504,293.841z M244.709,243.492L315,202.91V40.582c-10.211,1.836-26.276,6.071-43.143,16.811		c-12.508,7.964-21.346,16.887-27.148,23.771C244.709,135.273,244.709,189.383,244.709,243.492z"></path>
          </g>
    <g id="color_index_1" fill="#ffb343" transform="translate(487.87363877073795, 302.13782449999997) scale(0.611)" opacity="1">
              <path d="M157.504,131.513c4.862-6.858,14.109-18.027,29.211-27.108c16.704-10.045,32.48-12.669,41.08-13.474		c0,54.109,0,108.219,0,162.328l-70.291,40.582V131.513z M70.29,81.164c-4.705-6.808-13.8-18.077-28.861-27.199		C24.519,43.724,8.485,41.274,0.001,40.582c0,54.109,0,108.219,0,162.328l70.289,40.582V81.164z"></path>
          </g>
    <g id="color_index_0" fill="#683210" transform="translate(487.87363877073795, 302.13782449999997) scale(0.611)" opacity="1">
              <path d="M157.504,50.348l70.291,40.582l-70.291,40.582c-2.994-9.216-6.248-22.688-6.425-39.169		C150.888,74.47,154.385,59.947,157.504,50.348z M70.29,81.164l70.291-40.582L70.29,0c-3.347,9.485-7.391,24.657-6.931,43.549		C63.747,59.473,67.198,72.409,70.29,81.164z M244.709,81.164L315,40.582L244.709,0c-3.644,8.718-8.883,24.501-8.104,44.645		C237.221,60.558,241.36,73.172,244.709,81.164z"></path>
          </g>
    <g transform="translate(487.87363877073795, 302.13782449999997) scale(0.611)" opacity="1">
              <path d="M157.504,131.512L87.213,90.93l70.291-40.582V131.512z M70.291,0L0,40.582l70.291,40.582V0z M244.709,0l-70.291,40.582		l70.291,40.582V0z"></path>
          </g>
    <g fill="#7b5648" id="text_group" transform="translate(690.6866096248589, 289.94845309715924)" opacity="1.0">
              <path d="M-0.13 128.00L41.79 35.44L54.88 35.44L96.93 128.00L83.04 128.00L72.86 104.86L23.67 104.86L13.49 128.00L-0.13 128.00ZM48.26 48.93L28.30 94.28L68.23 94.28L48.26 48.93ZM113.72 128.00L98.51 128.00L133.29 80.53L100.63 35.44L115.70 35.44L141.62 71.01L167.27 35.44L181.69 35.44L149.03 80.13L184.07 128.00L168.86 128.00L141.09 89.79L113.72 128.00ZM186.32 46.94L186.32 35.44L262.88 35.44L262.88 46.94L231.14 46.94L231.14 128.00L218.05 128.00L218.05 46.94L186.32 46.94Z"></path>
          </g>
    <g fill="#bea1a2" id="tagline_group" transform="translate(688.3834313670723, 418.21931125884174)" opacity="1.0">
              <path d="M6.86 29.63L6.86 23.45L11.69 23.45C17.32 23.45 20.81 20.54 20.81 15.82C20.81 11.08 17.32 8.20 11.69 8.20L2.88 8.20L2.88 29.63ZM6.86 11.57L11.51 11.57C15.00 11.57 16.80 13.13 16.80 15.82C16.80 18.52 15.00 20.08 11.51 20.08L6.86 20.08ZM44.90 15.67L44.90 13.28L41.26 13.28L41.26 29.63L45.09 29.63L45.09 21.70C45.09 18.37 46.92 16.65 49.83 16.65C50.11 16.65 50.38 16.68 50.72 16.74L50.72 13.10C47.99 13.10 46.01 13.96 44.90 15.67ZM77.99 29.84C83.07 29.84 86.72 26.35 86.72 21.46C86.72 16.56 83.07 13.10 77.99 13.10C72.97 13.10 69.30 16.56 69.30 21.46C69.30 26.35 72.97 29.84 77.99 29.84ZM77.99 26.57C75.24 26.57 73.16 24.58 73.16 21.46C73.16 18.33 75.24 16.35 77.99 16.35C80.78 16.35 82.86 18.33 82.86 21.46C82.86 24.58 80.78 26.57 77.99 26.57ZM115.98 13.10C113.74 13.10 111.85 13.87 110.56 15.43L110.56 13.28L106.92 13.28L106.92 35.57L110.74 35.57L110.74 27.64C112.06 29.14 113.90 29.84 115.98 29.84C120.75 29.84 124.27 26.54 124.27 21.46C124.27 16.41 120.75 13.10 115.98 13.10ZM115.55 26.57C112.79 26.57 110.68 24.58 110.68 21.46C110.68 18.33 112.79 16.35 115.55 16.35C118.30 16.35 120.38 18.33 120.38 21.46C120.38 24.58 118.30 26.57 115.55 26.57ZM142.06 11.57L149.16 11.57L149.16 29.63L153.14 29.63L153.14 11.57L160.24 11.57L160.24 8.20L142.06 8.20ZM194.76 21.55C194.76 16.44 191.28 13.10 186.50 13.10C181.63 13.10 178.05 16.59 178.05 21.46C178.05 26.32 181.60 29.84 187.08 29.84C189.90 29.84 192.19 28.93 193.66 27.18L191.61 24.82C190.45 26.02 189.01 26.60 187.17 26.60C184.33 26.60 182.34 25.07 181.88 22.68L194.70 22.68C194.73 22.31 194.76 21.85 194.76 21.55ZM186.50 16.16C189.01 16.16 190.82 17.78 191.12 20.14L181.85 20.14C182.22 17.75 184.02 16.16 186.50 16.16ZM222.47 29.84C225.65 29.84 228.19 28.47 229.44 26.02L226.51 24.30C225.53 25.86 224.06 26.57 222.44 26.57C219.62 26.57 217.48 24.64 217.48 21.46C217.48 18.30 219.62 16.35 222.44 16.35C224.06 16.35 225.53 17.05 226.51 18.61L229.44 16.90C228.19 14.42 225.65 13.10 222.47 13.10C217.29 13.10 213.62 16.56 213.62 21.46C213.62 26.35 217.29 29.84 222.47 29.84ZM249.28 29.63L253.11 29.63L253.11 21.37C253.11 18.09 254.94 16.44 257.67 16.44C260.11 16.44 261.55 17.85 261.55 20.75L261.55 29.63L265.38 29.63L265.38 20.26C265.38 15.34 262.47 13.10 258.55 13.10C256.29 13.10 254.36 13.84 253.11 15.18L253.11 6.92L249.28 6.92Z"></path>
          </g>
  </svg>