<?xml version="1.0" encoding="UTF-8" standalone="no"?>
<svg
        xmlns:svg="http://www.w3.org/2000/svg"
        xmlns="http://www.w3.org/2000/svg"
        viewBox="509.30737 302.13782 479.69296 179.53685"
        y="0px"
        x="0px"
        id="final_svg"
        version="1.1"
        width="479.69296"
        height="179.53685">
    <defs
            id="defs28"/>

    <g
            transform="matrix(0.611,0,0,0.611,509.30738,302.13781)"
            id="color_index_2"
            style="opacity:1;fill:#ffc81d">
        <path
                id="path6"
                d="M 157.504,293.841 87.213,253.259 V 90.93 c 11.444,2.688 27.841,8.022 44.97,19.262 10.847,7.117 19.177,14.758 25.321,21.321 3.078,22.193 5.287,47.392 5.571,75.104 0.336,32.637 -2.071,61.974 -5.571,87.224 z M 244.709,243.492 315,202.91 V 40.582 c -10.211,1.836 -26.276,6.071 -43.143,16.811 -12.508,7.964 -21.346,16.887 -27.148,23.771 0,54.109 0,108.219 0,162.328 z"/>
    </g>
    <g
            transform="matrix(0.611,0,0,0.611,509.30738,302.13781)"
            id="color_index_1"
            style="opacity:1;fill:#ffb343">
        <path
                id="path9"
                d="m 157.504,131.513 c 4.862,-6.858 14.109,-18.027 29.211,-27.108 16.704,-10.045 32.48,-12.669 41.08,-13.474 0,54.109 0,108.219 0,162.328 l -70.291,40.582 z M 70.29,81.164 C 65.585,74.356 56.49,63.087 41.429,53.965 24.519,43.724 8.485,41.274 0.001,40.582 c 0,54.109 0,108.219 0,162.328 l 70.289,40.582 z"/>
    </g>
    <g
            transform="matrix(0.611,0,0,0.611,509.30738,302.13781)"
            id="color_index_0"
            style="opacity:1;fill:#683210">
        <path
                id="path12"
                d="m 157.504,50.348 70.291,40.582 -70.291,40.582 c -2.994,-9.216 -6.248,-22.688 -6.425,-39.169 -0.191,-17.873 3.306,-32.396 6.425,-41.995 z M 70.29,81.164 140.581,40.582 70.29,0 c -3.347,9.485 -7.391,24.657 -6.931,43.549 0.388,15.924 3.839,28.86 6.931,37.615 z m 174.419,0 L 315,40.582 244.709,0 c -3.644,8.718 -8.883,24.501 -8.104,44.645 0.616,15.913 4.755,28.527 8.104,36.519 z"/>
    </g>
    <g
            id="g17"
            transform="matrix(0.611,0,0,0.611,509.30738,302.13781)"
            style="opacity:1">
        <path
                id="path15"
                d="M 157.504,131.512 87.213,90.93 157.504,50.348 Z M 70.291,0 0,40.582 70.291,81.164 Z m 174.418,0 -70.291,40.582 70.291,40.582 z"/>
    </g>
    <g
            transform="translate(726.12035,289.94844)"
            id="text_group"
            style="opacity:1;fill:#7b5648">
        <path
                id="path19"
                d="M -0.13,128 41.79,35.44 H 54.88 L 96.93,128 H 83.04 L 72.86,104.86 H 23.67 L 13.49,128 Z M 48.26,48.93 28.3,94.28 H 68.23 Z M 113.72,128 H 98.51 L 133.29,80.53 100.63,35.44 h 15.07 l 25.92,35.57 25.65,-35.57 h 14.42 L 149.03,80.13 184.07,128 H 168.86 L 141.09,89.79 Z m 72.6,-81.06 v -11.5 h 76.56 v 11.5 H 231.14 V 128 H 218.05 V 46.94 Z"/>
    </g>
    <g
            transform="translate(723.81717,418.2193)"
            id="tagline_group"
            style="opacity:1;fill:#bea1a2">
        <path
                id="path22"
                d="m 6.08,26.29 v -5.48 h 4.3 c 4.99,0 8.09,-2.58 8.09,-6.77 0,-4.21 -3.1,-6.76 -8.09,-6.76 H 2.55 v 19.01 z m 0,-16.02 h 4.13 c 3.1,0 4.7,1.38 4.7,3.77 0,2.39 -1.6,3.78 -4.7,3.78 H 6.08 Z m 33.77,3.64 v -2.12 h -3.23 v 14.5 h 3.39 v -7.03 c 0,-2.96 1.63,-4.48 4.21,-4.48 0.25,0 0.49,0.02 0.79,0.08 v -3.23 c -2.42,0 -4.18,0.76 -5.16,2.28 z m 29.36,12.57 c 4.51,0 7.74,-3.09 7.74,-7.44 0,-4.34 -3.23,-7.41 -7.74,-7.41 -4.45,0 -7.71,3.07 -7.71,7.41 0,4.35 3.26,7.44 7.71,7.44 z m 0,-2.9 c -2.44,0 -4.29,-1.77 -4.29,-4.54 0,-2.77 1.85,-4.54 4.29,-4.54 2.47,0 4.32,1.77 4.32,4.54 0,2.77 -1.85,4.54 -4.32,4.54 z m 33.71,-11.95 c -1.98,0 -3.67,0.67 -4.81,2.06 v -1.9 h -3.23 v 19.77 h 3.39 v -7.03 c 1.17,1.33 2.8,1.95 4.65,1.95 4.24,0 7.36,-2.93 7.36,-7.44 0,-4.48 -3.12,-7.41 -7.36,-7.41 z m -0.38,11.95 c -2.45,0 -4.32,-1.77 -4.32,-4.54 0,-2.77 1.87,-4.54 4.32,-4.54 2.44,0 4.29,1.77 4.29,4.54 0,2.77 -1.85,4.54 -4.29,4.54 z m 45.69,-13.31 h 6.3 v 16.02 h 3.53 V 10.27 h 6.3 V 7.28 H 148.23 Z M 195,19.12 c 0,-4.53 -3.1,-7.49 -7.33,-7.49 -4.32,0 -7.5,3.09 -7.5,7.41 0,4.32 3.15,7.44 8.01,7.44 2.5,0 4.54,-0.81 5.84,-2.36 l -1.82,-2.09 c -1.03,1.06 -2.31,1.57 -3.94,1.57 -2.52,0 -4.29,-1.35 -4.69,-3.47 h 11.38 C 194.97,19.8 195,19.39 195,19.12 Z m -7.33,-4.78 c 2.22,0 3.83,1.44 4.1,3.53 h -8.23 c 0.32,-2.12 1.93,-3.53 4.13,-3.53 z m 31.91,12.14 c 2.83,0 5.08,-1.22 6.2,-3.39 l -2.61,-1.52 c -0.87,1.38 -2.17,2.01 -3.61,2.01 -2.5,0 -4.4,-1.71 -4.4,-4.54 0,-2.8 1.9,-4.54 4.4,-4.54 1.44,0 2.74,0.63 3.61,2.01 l 2.61,-1.52 c -1.12,-2.2 -3.37,-3.36 -6.2,-3.36 -4.59,0 -7.85,3.07 -7.85,7.41 0,4.35 3.26,7.44 7.85,7.44 z m 23.8,-0.19 h 3.39 v -7.33 c 0,-2.91 1.63,-4.37 4.05,-4.37 2.17,0 3.45,1.25 3.45,3.83 v 7.87 h 3.4 v -8.31 c 0,-4.37 -2.58,-6.35 -6.06,-6.35 -2.01,0 -3.72,0.65 -4.84,1.84 V 6.14 h -3.39 z"/>
    </g>
</svg>
