<svg version="1.1" id="final_svg" xmlns:x="&amp;ns_extend;" xmlns:i="&amp;ns_ai;" xmlns:graph="&amp;ns_graphs;" xmlns="http://www.w3.org/2000/svg" xmlns:xlink="http://www.w3.org/1999/xlink" x="0px" y="0px" viewBox="408.8675231933594 302.1378173828125 405.9449768066406 179.536865234375" style="enable-background:new 0 0 315 293.841;" xml:space="preserve">
      <style type="text/css">.st0{fill:#D70CF2;}	.st1{fill:#56048C;}	.st2{fill:#0597F2;}</style>
    <metadata>
              <sfw>
                      <slices></slices>
            <slicesourcebounds bottomleftorigin="true" height="293.841" width="315" x="0" y="0"></slicesourcebounds>
                  </sfw>
          </metadata>
    <g id="color_index_2" fill="#ffc81d" transform="translate(408.8675378298188, 302.13782449999997) scale(0.611)" opacity="1">
              <path d="M157.504,293.841l-70.291-40.582V90.93c11.444,2.688,27.841,8.022,44.97,19.262		c10.847,7.117,19.177,14.758,25.321,21.321c3.078,22.193,5.287,47.392,5.571,75.104		C163.411,239.254,161.004,268.591,157.504,293.841z M244.709,243.492L315,202.91V40.582c-10.211,1.836-26.276,6.071-43.143,16.811		c-12.508,7.964-21.346,16.887-27.148,23.771C244.709,135.273,244.709,189.383,244.709,243.492z"></path>
          </g>
    <g id="color_index_1" fill="#ffb343" transform="translate(408.8675378298188, 302.13782449999997) scale(0.611)" opacity="1">
              <path d="M157.504,131.513c4.862-6.858,14.109-18.027,29.211-27.108c16.704-10.045,32.48-12.669,41.08-13.474		c0,54.109,0,108.219,0,162.328l-70.291,40.582V131.513z M70.29,81.164c-4.705-6.808-13.8-18.077-28.861-27.199		C24.519,43.724,8.485,41.274,0.001,40.582c0,54.109,0,108.219,0,162.328l70.289,40.582V81.164z"></path>
          </g>
    <g id="color_index_0" fill="#683210" transform="translate(408.8675378298188, 302.13782449999997) scale(0.611)" opacity="1">
              <path d="M157.504,50.348l70.291,40.582l-70.291,40.582c-2.994-9.216-6.248-22.688-6.425-39.169		C150.888,74.47,154.385,59.947,157.504,50.348z M70.29,81.164l70.291-40.582L70.29,0c-3.347,9.485-7.391,24.657-6.931,43.549		C63.747,59.473,67.198,72.409,70.29,81.164z M244.709,81.164L315,40.582L244.709,0c-3.644,8.718-8.883,24.501-8.104,44.645		C237.221,60.558,241.36,73.172,244.709,81.164z"></path>
          </g>
    <g transform="translate(408.8675378298188, 302.13782449999997) scale(0.611)" opacity="1">
              <path d="M157.504,131.512L87.213,90.93l70.291-40.582V131.512z M70.291,0L0,40.582l70.291,40.582V0z M244.709,0l-70.291,40.582		l70.291,40.582V0z"></path>
          </g>
    <g fill="#7b5648" id="text_group" transform="translate(625.3325378298186, 315.57436749999994)" opacity="1.0">
              <path d="M-0.07 66.79L21.80 18.49L28.63 18.49L50.57 66.79L43.33 66.79L38.02 54.71L12.35 54.71L7.04 66.79L-0.07 66.79ZM25.18 25.53L14.77 49.19L35.60 49.19L25.18 25.53ZM59.34 66.79L51.40 66.79L69.55 42.02L52.51 18.49L60.37 18.49L73.89 37.05L87.28 18.49L94.80 18.49L77.76 41.81L96.04 66.79L88.11 66.79L73.62 46.85L59.34 66.79ZM97.22 24.49L97.22 18.49L137.16 18.49L137.16 24.49L120.61 24.49L120.61 66.79L113.77 66.79L113.77 24.49L97.22 24.49ZM144.68 66.79L144.68 18.49L163.52 18.49Q168.21 18.49 171.94 19.63Q175.66 20.77 178.29 22.94Q180.91 25.11 182.29 28.25Q183.67 31.39 183.67 35.33L183.67 35.33Q183.67 39.26 182.29 42.36Q180.91 45.47 178.29 47.64Q175.66 49.82 171.94 50.99Q168.21 52.16 163.52 52.16L163.52 52.16L151.58 52.16L151.58 66.79L144.68 66.79ZM163.31 24.49L151.58 24.49L151.58 46.16L163.31 46.16Q169.94 46.16 173.35 43.36Q176.77 40.57 176.77 35.33L176.77 35.33Q176.77 30.08 173.35 27.29Q169.94 24.49 163.31 24.49L163.31 24.49Z"></path>
          </g>
    <g fill="#bea1a2" id="tagline_group" transform="translate(625.3325378298186, 402.19663549999996)" opacity="1.0">
              <path d="M4.90 21.16L4.90 16.74L8.35 16.74C12.37 16.74 14.86 14.66 14.86 11.30C14.86 7.91 12.37 5.86 8.35 5.86L2.05 5.86L2.05 21.16ZM4.90 8.26L8.22 8.26C10.71 8.26 12.00 9.38 12.00 11.30C12.00 13.22 10.71 14.34 8.22 14.34L4.90 14.34ZM32.06 11.19L32.06 9.48L29.46 9.48L29.46 21.16L32.19 21.16L32.19 15.49C32.19 13.11 33.50 11.89 35.58 11.89C35.78 11.89 35.97 11.91 36.21 11.95L36.21 9.35C34.27 9.35 32.85 9.97 32.06 11.19ZM55.68 21.31C59.31 21.31 61.91 18.82 61.91 15.32C61.91 11.82 59.31 9.35 55.68 9.35C52.10 9.35 49.48 11.82 49.48 15.32C49.48 18.82 52.10 21.31 55.68 21.31ZM55.68 18.97C53.72 18.97 52.23 17.55 52.23 15.32C52.23 13.09 53.72 11.67 55.68 11.67C57.67 11.67 59.16 13.09 59.16 15.32C59.16 17.55 57.67 18.97 55.68 18.97ZM82.81 9.35C81.21 9.35 79.86 9.90 78.94 11.01L78.94 9.48L76.34 9.48L76.34 25.39L79.07 25.39L79.07 19.73C80.01 20.81 81.32 21.31 82.81 21.31C86.22 21.31 88.73 18.95 88.73 15.32C88.73 11.71 86.22 9.35 82.81 9.35ZM82.50 18.97C80.53 18.97 79.03 17.55 79.03 15.32C79.03 13.09 80.53 11.67 82.50 11.67C84.47 11.67 85.95 13.09 85.95 15.32C85.95 17.55 84.47 18.97 82.50 18.97ZM101.43 8.26L106.50 8.26L106.50 21.16L109.34 21.16L109.34 8.26L114.41 8.26L114.41 5.86L101.43 5.86ZM139.06 15.39C139.06 11.74 136.57 9.35 133.16 9.35C129.68 9.35 127.13 11.85 127.13 15.32C127.13 18.79 129.66 21.31 133.57 21.31C135.58 21.31 137.22 20.65 138.27 19.41L136.81 17.72C135.98 18.58 134.95 18.99 133.64 18.99C131.61 18.99 130.19 17.90 129.86 16.19L139.02 16.19C139.04 15.93 139.06 15.60 139.06 15.39ZM133.16 11.54C134.95 11.54 136.24 12.70 136.46 14.38L129.84 14.38C130.10 12.68 131.39 11.54 133.16 11.54ZM158.84 21.31C161.11 21.31 162.92 20.32 163.82 18.58L161.72 17.35C161.02 18.47 159.97 18.97 158.82 18.97C156.81 18.97 155.28 17.59 155.28 15.32C155.28 13.07 156.81 11.67 158.82 11.67C159.97 11.67 161.02 12.17 161.72 13.29L163.82 12.06C162.92 10.29 161.11 9.35 158.84 9.35C155.14 9.35 152.52 11.82 152.52 15.32C152.52 18.82 155.14 21.31 158.84 21.31ZM177.98 21.16L180.71 21.16L180.71 15.25C180.71 12.92 182.03 11.74 183.97 11.74C185.72 11.74 186.75 12.74 186.75 14.82L186.75 21.16L189.48 21.16L189.48 14.47C189.48 10.95 187.40 9.35 184.60 9.35C182.99 9.35 181.61 9.88 180.71 10.84L180.71 4.94L177.98 4.94Z"></path>
          </g>
  </svg>